<svg width="24" height="24" viewBox="0 0 24 24" fill="none" xmlns="http://www.w3.org/2000/svg">
<g clip-path="url(#clip0_1_1333)">
<path d="M23.3137 11.9411L21.8995 10.5269L20.4853 11.9411L19.0711 10.5269L17.6569 11.9411L16.2426 10.5269L14.8284 11.9411L13.4142 10.5269L12 11.9411L10.5858 10.5269L9.17157 11.9411L7.75736 10.5269L6.34315 11.9411L4.92893 10.5269L3.51472 11.9411L2.10051 10.5269L0.686292 11.9411L2.10051 13.3554L3.51472 11.9411L4.92893 13.3554L6.34315 11.9411L7.75736 13.3554L9.17157 11.9411L10.5858 13.3554L12 11.9411L13.4142 13.3554L14.8284 11.9411L16.2426 13.3554L17.6569 11.9411L19.0711 13.3554L20.4853 11.9411L21.8995 13.3554L23.3137 11.9411Z" fill="white"/>
<path d="M23.3137 19.5686L21.8995 18.1544L20.4853 19.5686L19.0711 18.1544L17.6569 19.5686L16.2426 18.1544L14.8284 19.5686L13.4142 18.1544L12 19.5686L10.5858 18.1544L9.17157 19.5686L7.75736 18.1544L6.34315 19.5686L4.92893 18.1544L3.51472 19.5686L2.10051 18.1544L0.686292 19.5686L2.10051 20.9828L3.51472 19.5686L4.92893 20.9828L6.34315 19.5686L7.75736 20.9828L9.17157 19.5686L10.5858 20.9828L12 19.5686L13.4142 20.9828L14.8284 19.5686L16.2426 20.9828L17.6569 19.5686L19.0711 20.9828L20.4853 19.5686L21.8995 20.9828L23.3137 19.5686Z" fill="white"/>
<path d="M23.3137 4.31371L21.8995 2.89949L20.4853 4.31371L19.0711 2.89949L17.6569 4.31371L16.2426 2.89949L14.8284 4.31371L13.4142 2.89949L12 4.31371L10.5858 2.89949L9.17157 4.31371L7.75736 2.89949L6.34315 4.31371L4.92893 2.89949L3.51472 4.31371L2.10051 2.89949L0.686292 4.31371L2.10051 5.72792L3.51472 4.31371L4.92893 5.72792L6.34315 4.31371L7.75736 5.72792L9.17157 4.31371L10.5858 5.72792L12 4.31371L13.4142 5.72792L14.8284 4.31371L16.2426 5.72792L17.6569 4.31371L19.0711 5.72792L20.4853 4.31371L21.8995 5.72792L23.3137 4.31371Z" fill="white"/>
</g>
<defs>
<clipPath id="clip0_1_1333">
<rect width="24" height="24" fill="white"/>
</clipPath>
</defs>
</svg>
