<svg width="21" height="19" viewBox="0 0 21 19" fill="none" xmlns="http://www.w3.org/2000/svg">
<path d="M14.7439 4.68544L0 16.6305L1.62512 18.7264L16.3749 6.78865L18.006 8.89186L20.118 7.26767L18.487 5.16446L20.5991 3.54026L18.968 1.43705L0 16.6305L16.9355 3.06513L15.2249 0.958035L13.1129 2.58223L14.7439 4.68544ZM9.36975 2.10321L11.4818 0.479017L13.1129 2.58223L11.0008 4.20642L9.36975 2.10321ZM9.36975 2.10321L7.25768 3.7274L5.62665 1.62419L7.73872 0L9.36975 2.10321ZM17.5249 12.6193L19.637 10.9951L18.006 8.89186L15.8939 10.5161L17.5249 12.6193ZM17.5249 12.6193L15.4129 14.2435L17.0439 16.3467L19.156 14.7225L17.5249 12.6193Z" fill="white"/>
</svg>
