<svg width="52" height="52" viewBox="0 0 52 52" fill="none" xmlns="http://www.w3.org/2000/svg">
<rect width="52" height="52" rx="26" fill="white"/>
<path d="M22.6759 19.9908C22.6759 19.5766 23.0116 19.2409 23.4258 19.2409H32.0106C32.2093 19.241 32.4003 19.3199 32.5409 19.4605C32.6812 19.6011 32.7605 19.7921 32.7605 19.9908L32.7598 28.5748C32.7595 28.9888 32.4239 29.3247 32.0099 29.3247C31.5959 29.3246 31.2602 28.9887 31.2599 28.5748L31.2593 21.8L20.5187 32.5405C20.2258 32.8334 19.7509 32.8334 19.458 32.5405C19.1654 32.2476 19.1652 31.7727 19.458 31.4799L30.1972 20.7407H23.4258C23.0118 20.7407 22.6762 20.4047 22.6759 19.9908Z" fill="#8501A6"/>
</svg>
