<svg width="18" height="31" viewBox="0 0 18 31" fill="none" xmlns="http://www.w3.org/2000/svg">
<path d="M8.90445 13.0019L13.3568 12.9612L13.3564 17.2934L8.90445 17.3495V21.6971L13.3568 21.6563V17.3087L17.8091 17.268V12.9204L13.3568 12.9612L13.3568 8.61359L8.90445 8.65434V13.0019ZM4.45213 4.34752L8.90445 4.30677L8.90445 8.65434L4.45213 8.6951L4.45213 4.34752ZM4.45213 4.34752L-0.000191077 4.38827V0.0406936L4.45213 -5.83925e-05V4.34752ZM4.45213 26.0854L8.90445 26.0447L8.90445 21.6971L4.45213 21.7378L4.45213 26.0854ZM4.45213 26.0854L-0.000191077 26.1262V30.4737L4.45213 30.433V26.0854Z" fill="white"/>
</svg>
