<svg width="18" height="31" viewBox="0 0 18 31" fill="none" xmlns="http://www.w3.org/2000/svg">
<path d="M8.68441 17.4698L4.34221 17.5096L4.34255 13.1773L8.68441 13.1222V8.77467L4.34221 8.81441L4.34221 13.162L0 13.2017L0 17.5493L4.34221 17.5096L4.34221 21.8571L8.68441 21.8174V17.4698ZM13.0266 26.1252L8.68441 26.165L8.68441 21.8174L13.0266 21.7777L13.0266 26.1252ZM13.0266 26.1252L17.3688 26.0855V30.4331L13.0266 30.4728V26.1252ZM13.0266 4.38735L8.68441 4.42709L8.68441 8.77467L13.0266 8.73492L13.0266 4.38735ZM13.0266 4.38735L17.3688 4.3476V2.36271e-05L13.0266 0.0397678V4.38735Z" fill="white"/>
</svg>
